<mxfile host="app.diagrams.net" modified="2023-10-23T16:44:44.523Z" agent="Mozilla/5.0 (Windows NT 10.0; Win64; x64) AppleWebKit/537.36 (KHTML, like Gecko) Chrome/118.0.0.0 Safari/537.36" etag="mBOdJyJvoHiHagHeo4Rz" version="22.0.6" type="device">
  <diagram name="Page-1" id="EbAEV_jTW3WetPSAjjS8">
    <mxGraphModel dx="1730" dy="490" grid="1" gridSize="10" guides="1" tooltips="1" connect="1" arrows="1" fold="1" page="1" pageScale="1" pageWidth="850" pageHeight="1100" background="#FFFFFF" math="0" shadow="0">
      <root>
        <mxCell id="0" />
        <mxCell id="1" parent="0" />
        <mxCell id="I4zF0libvXT6VsBdM8mX-1" value="" style="rounded=1;whiteSpace=wrap;html=1;fillColor=#182E3E;strokeColor=#FFFFFF;labelBackgroundColor=none;fontColor=#FFFFFF;" parent="1" vertex="1">
          <mxGeometry x="290" y="80" width="300" height="80" as="geometry" />
        </mxCell>
        <mxCell id="I4zF0libvXT6VsBdM8mX-2" value="&lt;font style=&quot;font-size: 20px;&quot;&gt;Course Recommender System&lt;/font&gt;" style="text;html=1;strokeColor=none;fillColor=none;align=center;verticalAlign=middle;whiteSpace=wrap;rounded=1;labelBackgroundColor=none;fontColor=#FFFFFF;" parent="1" vertex="1">
          <mxGeometry x="320" y="102" width="260" height="30" as="geometry" />
        </mxCell>
        <mxCell id="I4zF0libvXT6VsBdM8mX-20" style="edgeStyle=orthogonalEdgeStyle;rounded=1;orthogonalLoop=1;jettySize=auto;html=1;exitX=0.75;exitY=1;exitDx=0;exitDy=0;entryX=0.5;entryY=0;entryDx=0;entryDy=0;labelBackgroundColor=none;strokeColor=#23445D;fontColor=default;" parent="1" source="I4zF0libvXT6VsBdM8mX-3" target="I4zF0libvXT6VsBdM8mX-16" edge="1">
          <mxGeometry relative="1" as="geometry">
            <mxPoint x="680" y="320" as="targetPoint" />
          </mxGeometry>
        </mxCell>
        <mxCell id="I4zF0libvXT6VsBdM8mX-21" style="edgeStyle=orthogonalEdgeStyle;rounded=1;orthogonalLoop=1;jettySize=auto;html=1;exitX=0.25;exitY=1;exitDx=0;exitDy=0;entryX=0.5;entryY=0;entryDx=0;entryDy=0;labelBackgroundColor=none;strokeColor=#23445D;fontColor=default;" parent="1" source="I4zF0libvXT6VsBdM8mX-3" target="I4zF0libvXT6VsBdM8mX-14" edge="1">
          <mxGeometry relative="1" as="geometry" />
        </mxCell>
        <mxCell id="I4zF0libvXT6VsBdM8mX-3" value="" style="rounded=1;whiteSpace=wrap;html=1;fillColor=#182E3E;strokeColor=#FFFFFF;labelBackgroundColor=none;fontColor=#FFFFFF;" parent="1" vertex="1">
          <mxGeometry x="345" y="200" width="190" height="80" as="geometry" />
        </mxCell>
        <mxCell id="I4zF0libvXT6VsBdM8mX-4" value="&lt;font style=&quot;font-size: 15px;&quot;&gt;User Registration and Authentication&lt;/font&gt;" style="text;html=1;strokeColor=none;fillColor=none;align=center;verticalAlign=middle;whiteSpace=wrap;rounded=1;labelBackgroundColor=none;fontColor=#FFFFFF;" parent="1" vertex="1">
          <mxGeometry x="372" y="225" width="136" height="30" as="geometry" />
        </mxCell>
        <mxCell id="I4zF0libvXT6VsBdM8mX-5" value="" style="rounded=1;whiteSpace=wrap;html=1;fillColor=#182E3E;strokeColor=#FFFFFF;labelBackgroundColor=none;fontColor=#FFFFFF;" parent="1" vertex="1">
          <mxGeometry x="627" y="560" width="159" height="79" as="geometry" />
        </mxCell>
        <mxCell id="I4zF0libvXT6VsBdM8mX-6" value="Course Management" style="text;html=1;strokeColor=none;fillColor=none;align=center;verticalAlign=middle;whiteSpace=wrap;rounded=1;fontSize=15;labelBackgroundColor=none;fontColor=#FFFFFF;" parent="1" vertex="1">
          <mxGeometry x="657" y="575" width="99" height="44" as="geometry" />
        </mxCell>
        <mxCell id="I4zF0libvXT6VsBdM8mX-7" value="" style="rounded=1;whiteSpace=wrap;html=1;fillColor=#182E3E;strokeColor=#FFFFFF;labelBackgroundColor=none;fontColor=#FFFFFF;" parent="1" vertex="1">
          <mxGeometry x="140" y="559" width="159" height="80" as="geometry" />
        </mxCell>
        <mxCell id="I4zF0libvXT6VsBdM8mX-8" value="Review Management" style="text;html=1;strokeColor=none;fillColor=none;align=center;verticalAlign=middle;whiteSpace=wrap;rounded=1;fontSize=15;labelBackgroundColor=none;fontColor=#FFFFFF;" parent="1" vertex="1">
          <mxGeometry x="170" y="574" width="99" height="45" as="geometry" />
        </mxCell>
        <mxCell id="I4zF0libvXT6VsBdM8mX-9" value="" style="rounded=1;whiteSpace=wrap;html=1;fillColor=#182E3E;strokeColor=#FFFFFF;labelBackgroundColor=none;fontColor=#FFFFFF;" parent="1" vertex="1">
          <mxGeometry x="362" y="558" width="159" height="81" as="geometry" />
        </mxCell>
        <mxCell id="I4zF0libvXT6VsBdM8mX-10" value="Enrollment Management" style="text;html=1;strokeColor=none;fillColor=none;align=center;verticalAlign=middle;whiteSpace=wrap;rounded=1;fontSize=15;labelBackgroundColor=none;fontColor=#FFFFFF;" parent="1" vertex="1">
          <mxGeometry x="392" y="573" width="99" height="46" as="geometry" />
        </mxCell>
        <mxCell id="I4zF0libvXT6VsBdM8mX-11" value="" style="rounded=1;whiteSpace=wrap;html=1;fillColor=#182E3E;strokeColor=#FFFFFF;fillStyle=auto;labelBackgroundColor=none;fontColor=#FFFFFF;" parent="1" vertex="1">
          <mxGeometry x="-85" y="558" width="159" height="77" as="geometry" />
        </mxCell>
        <mxCell id="I4zF0libvXT6VsBdM8mX-12" value="Course Recommender" style="text;html=1;strokeColor=none;fillColor=none;align=center;verticalAlign=middle;whiteSpace=wrap;rounded=1;fontSize=15;labelBackgroundColor=none;fontColor=#FFFFFF;" parent="1" vertex="1">
          <mxGeometry x="-36" y="582" width="60" height="30" as="geometry" />
        </mxCell>
        <mxCell id="I4zF0libvXT6VsBdM8mX-13" value="" style="endArrow=classic;html=1;rounded=1;exitX=0.5;exitY=1;exitDx=0;exitDy=0;entryX=0.5;entryY=0;entryDx=0;entryDy=0;labelBackgroundColor=none;strokeColor=#23445D;fontColor=default;" parent="1" source="I4zF0libvXT6VsBdM8mX-1" target="I4zF0libvXT6VsBdM8mX-3" edge="1">
          <mxGeometry width="50" height="50" relative="1" as="geometry">
            <mxPoint x="400" y="200" as="sourcePoint" />
            <mxPoint x="450" y="150" as="targetPoint" />
          </mxGeometry>
        </mxCell>
        <mxCell id="UfVapmBmuUFkcLh0fFch-4" style="edgeStyle=orthogonalEdgeStyle;rounded=0;orthogonalLoop=1;jettySize=auto;html=1;exitX=0.75;exitY=1;exitDx=0;exitDy=0;entryX=0.25;entryY=0;entryDx=0;entryDy=0;" edge="1" parent="1" source="I4zF0libvXT6VsBdM8mX-14" target="I4zF0libvXT6VsBdM8mX-9">
          <mxGeometry relative="1" as="geometry">
            <Array as="points">
              <mxPoint x="259" y="470" />
              <mxPoint x="260" y="480" />
              <mxPoint x="401" y="480" />
            </Array>
          </mxGeometry>
        </mxCell>
        <mxCell id="UfVapmBmuUFkcLh0fFch-9" style="edgeStyle=orthogonalEdgeStyle;rounded=0;orthogonalLoop=1;jettySize=auto;html=1;exitX=0.25;exitY=1;exitDx=0;exitDy=0;" edge="1" parent="1" source="I4zF0libvXT6VsBdM8mX-14" target="I4zF0libvXT6VsBdM8mX-11">
          <mxGeometry relative="1" as="geometry">
            <Array as="points">
              <mxPoint x="180" y="480" />
              <mxPoint x="-5" y="480" />
            </Array>
          </mxGeometry>
        </mxCell>
        <mxCell id="I4zF0libvXT6VsBdM8mX-14" value="" style="rounded=1;whiteSpace=wrap;html=1;fillColor=#182E3E;strokeColor=#FFFFFF;labelBackgroundColor=none;fontColor=#FFFFFF;" parent="1" vertex="1">
          <mxGeometry x="140" y="360" width="159" height="80" as="geometry" />
        </mxCell>
        <mxCell id="I4zF0libvXT6VsBdM8mX-15" value="&lt;font style=&quot;font-size: 15px;&quot;&gt;Student Dashboard&lt;br&gt;&lt;/font&gt;" style="text;html=1;strokeColor=none;fillColor=none;align=center;verticalAlign=middle;whiteSpace=wrap;rounded=1;labelBackgroundColor=none;fontColor=#FFFFFF;" parent="1" vertex="1">
          <mxGeometry x="159" y="385" width="120" height="30" as="geometry" />
        </mxCell>
        <mxCell id="UfVapmBmuUFkcLh0fFch-8" style="edgeStyle=orthogonalEdgeStyle;rounded=0;orthogonalLoop=1;jettySize=auto;html=1;exitX=0.25;exitY=1;exitDx=0;exitDy=0;entryX=0.75;entryY=0;entryDx=0;entryDy=0;" edge="1" parent="1" source="I4zF0libvXT6VsBdM8mX-16" target="I4zF0libvXT6VsBdM8mX-9">
          <mxGeometry relative="1" as="geometry">
            <Array as="points">
              <mxPoint x="621" y="480" />
              <mxPoint x="481" y="480" />
            </Array>
          </mxGeometry>
        </mxCell>
        <mxCell id="I4zF0libvXT6VsBdM8mX-16" value="" style="rounded=1;whiteSpace=wrap;html=1;fillColor=#182E3E;strokeColor=#FFFFFF;labelBackgroundColor=none;fontColor=#FFFFFF;" parent="1" vertex="1">
          <mxGeometry x="581" y="360" width="159" height="79" as="geometry" />
        </mxCell>
        <mxCell id="I4zF0libvXT6VsBdM8mX-17" value="Admin Dashboard" style="text;html=1;strokeColor=none;fillColor=none;align=center;verticalAlign=middle;whiteSpace=wrap;rounded=1;fontSize=15;labelBackgroundColor=none;fontColor=#FFFFFF;" parent="1" vertex="1">
          <mxGeometry x="611" y="371.5" width="99" height="54" as="geometry" />
        </mxCell>
        <mxCell id="UfVapmBmuUFkcLh0fFch-5" style="edgeStyle=orthogonalEdgeStyle;rounded=0;orthogonalLoop=1;jettySize=auto;html=1;exitX=0.5;exitY=1;exitDx=0;exitDy=0;" edge="1" parent="1" source="I4zF0libvXT6VsBdM8mX-14">
          <mxGeometry relative="1" as="geometry">
            <mxPoint x="220" y="560" as="targetPoint" />
            <Array as="points">
              <mxPoint x="220" y="560" />
            </Array>
          </mxGeometry>
        </mxCell>
        <mxCell id="UfVapmBmuUFkcLh0fFch-7" style="edgeStyle=orthogonalEdgeStyle;rounded=0;orthogonalLoop=1;jettySize=auto;html=1;exitX=0.75;exitY=1;exitDx=0;exitDy=0;entryX=0.465;entryY=0.038;entryDx=0;entryDy=0;entryPerimeter=0;" edge="1" parent="1" source="I4zF0libvXT6VsBdM8mX-16" target="I4zF0libvXT6VsBdM8mX-5">
          <mxGeometry relative="1" as="geometry" />
        </mxCell>
      </root>
    </mxGraphModel>
  </diagram>
</mxfile>
